<mxfile host="app.diagrams.net" modified="2021-03-27T13:01:30.003Z" agent="5.0 (Windows NT 10.0; Win64; x64) AppleWebKit/537.36 (KHTML, like Gecko) Chrome/89.0.4389.90 Safari/537.36" etag="xcJZNa1NS45BnvljXZ0H" version="14.1.2" type="github">
  <diagram id="c0MXWbJFAQSlTRfawCmW" name="Page-1">
    <mxGraphModel dx="1038" dy="548" grid="1" gridSize="10" guides="1" tooltips="1" connect="1" arrows="1" fold="1" page="1" pageScale="1" pageWidth="827" pageHeight="1169" math="0" shadow="0">
      <root>
        <mxCell id="0" />
        <mxCell id="1" parent="0" />
        <mxCell id="eYOfIdHn1QBxmItVKCGx-22" style="edgeStyle=orthogonalEdgeStyle;rounded=0;orthogonalLoop=1;jettySize=auto;html=1;exitX=1;exitY=0.5;exitDx=0;exitDy=0;" edge="1" parent="1" source="eYOfIdHn1QBxmItVKCGx-1" target="eYOfIdHn1QBxmItVKCGx-23">
          <mxGeometry relative="1" as="geometry">
            <mxPoint x="310" y="110" as="targetPoint" />
          </mxGeometry>
        </mxCell>
        <mxCell id="eYOfIdHn1QBxmItVKCGx-1" value="App 1" style="rounded=0;whiteSpace=wrap;html=1;" vertex="1" parent="1">
          <mxGeometry x="110" y="110" width="120" height="60" as="geometry" />
        </mxCell>
        <mxCell id="eYOfIdHn1QBxmItVKCGx-42" style="edgeStyle=orthogonalEdgeStyle;rounded=0;orthogonalLoop=1;jettySize=auto;html=1;exitX=0.5;exitY=1;exitDx=0;exitDy=0;entryX=0.5;entryY=0;entryDx=0;entryDy=0;" edge="1" parent="1" source="eYOfIdHn1QBxmItVKCGx-2" target="eYOfIdHn1QBxmItVKCGx-40">
          <mxGeometry relative="1" as="geometry" />
        </mxCell>
        <mxCell id="eYOfIdHn1QBxmItVKCGx-2" value="App 2" style="rounded=0;whiteSpace=wrap;html=1;" vertex="1" parent="1">
          <mxGeometry x="560" y="110" width="120" height="60" as="geometry" />
        </mxCell>
        <mxCell id="eYOfIdHn1QBxmItVKCGx-20" style="edgeStyle=orthogonalEdgeStyle;rounded=0;orthogonalLoop=1;jettySize=auto;html=1;entryX=0;entryY=0.5;entryDx=0;entryDy=0;" edge="1" parent="1" source="eYOfIdHn1QBxmItVKCGx-23" target="eYOfIdHn1QBxmItVKCGx-2">
          <mxGeometry relative="1" as="geometry">
            <mxPoint x="450" y="150" as="sourcePoint" />
            <mxPoint x="380" y="160" as="targetPoint" />
          </mxGeometry>
        </mxCell>
        <mxCell id="eYOfIdHn1QBxmItVKCGx-23" value="..." style="swimlane;fontStyle=0;childLayout=stackLayout;horizontal=1;startSize=26;fillColor=none;horizontalStack=0;resizeParent=1;resizeParentMax=0;resizeLast=0;collapsible=1;marginBottom=0;dashed=1;dashPattern=1 2;" vertex="1" parent="1">
          <mxGeometry x="340" y="88" width="140" height="104" as="geometry">
            <mxRectangle x="340" y="88" width="130" height="26" as="alternateBounds" />
          </mxGeometry>
        </mxCell>
        <mxCell id="eYOfIdHn1QBxmItVKCGx-24" value="List Item 1" style="text;strokeColor=none;fillColor=none;align=left;verticalAlign=top;spacingLeft=4;spacingRight=4;overflow=hidden;rotatable=0;points=[[0,0.5],[1,0.5]];portConstraint=eastwest;" vertex="1" parent="eYOfIdHn1QBxmItVKCGx-23">
          <mxGeometry y="26" width="140" height="26" as="geometry" />
        </mxCell>
        <mxCell id="eYOfIdHn1QBxmItVKCGx-26" value="List Item 3" style="text;strokeColor=none;fillColor=none;align=left;verticalAlign=top;spacingLeft=4;spacingRight=4;overflow=hidden;rotatable=0;points=[[0,0.5],[1,0.5]];portConstraint=eastwest;" vertex="1" parent="eYOfIdHn1QBxmItVKCGx-23">
          <mxGeometry y="52" width="140" height="26" as="geometry" />
        </mxCell>
        <mxCell id="eYOfIdHn1QBxmItVKCGx-25" value="List Item 2" style="text;strokeColor=none;fillColor=none;align=left;verticalAlign=top;spacingLeft=4;spacingRight=4;overflow=hidden;rotatable=0;points=[[0,0.5],[1,0.5]];portConstraint=eastwest;" vertex="1" parent="eYOfIdHn1QBxmItVKCGx-23">
          <mxGeometry y="78" width="140" height="26" as="geometry" />
        </mxCell>
        <mxCell id="eYOfIdHn1QBxmItVKCGx-27" value="" style="shape=table;html=1;whiteSpace=wrap;startSize=0;container=1;collapsible=0;childLayout=tableLayout;dashed=1;dashPattern=1 2;strokeColor=none;fillColor=none;" vertex="1" parent="1">
          <mxGeometry x="110" y="280" width="120" height="80" as="geometry" />
        </mxCell>
        <mxCell id="eYOfIdHn1QBxmItVKCGx-28" value="" style="shape=partialRectangle;html=1;whiteSpace=wrap;collapsible=0;dropTarget=0;pointerEvents=0;fillColor=none;top=0;left=0;bottom=0;right=0;points=[[0,0.5],[1,0.5]];portConstraint=eastwest;" vertex="1" parent="eYOfIdHn1QBxmItVKCGx-27">
          <mxGeometry width="120" height="20" as="geometry" />
        </mxCell>
        <mxCell id="eYOfIdHn1QBxmItVKCGx-29" value="Table Item 1" style="shape=partialRectangle;html=1;whiteSpace=wrap;connectable=0;overflow=hidden;fillColor=none;top=0;left=0;bottom=0;right=0;" vertex="1" parent="eYOfIdHn1QBxmItVKCGx-28">
          <mxGeometry width="120" height="20" as="geometry" />
        </mxCell>
        <mxCell id="eYOfIdHn1QBxmItVKCGx-30" value="" style="shape=partialRectangle;html=1;whiteSpace=wrap;collapsible=0;dropTarget=0;pointerEvents=0;fillColor=none;top=0;left=0;bottom=0;right=0;points=[[0,0.5],[1,0.5]];portConstraint=eastwest;" vertex="1" parent="eYOfIdHn1QBxmItVKCGx-27">
          <mxGeometry y="20" width="120" height="20" as="geometry" />
        </mxCell>
        <mxCell id="eYOfIdHn1QBxmItVKCGx-31" value="Table Item 2" style="shape=partialRectangle;html=1;whiteSpace=wrap;connectable=0;overflow=hidden;fillColor=none;top=0;left=0;bottom=0;right=0;" vertex="1" parent="eYOfIdHn1QBxmItVKCGx-30">
          <mxGeometry width="120" height="20" as="geometry" />
        </mxCell>
        <mxCell id="eYOfIdHn1QBxmItVKCGx-38" value="" style="shape=partialRectangle;html=1;whiteSpace=wrap;collapsible=0;dropTarget=0;pointerEvents=0;fillColor=none;top=0;left=0;bottom=0;right=0;points=[[0,0.5],[1,0.5]];portConstraint=eastwest;" vertex="1" parent="eYOfIdHn1QBxmItVKCGx-27">
          <mxGeometry y="40" width="120" height="20" as="geometry" />
        </mxCell>
        <mxCell id="eYOfIdHn1QBxmItVKCGx-39" value="Table Item 2" style="shape=partialRectangle;html=1;whiteSpace=wrap;connectable=0;overflow=hidden;fillColor=none;top=0;left=0;bottom=0;right=0;" vertex="1" parent="eYOfIdHn1QBxmItVKCGx-38">
          <mxGeometry width="120" height="20" as="geometry" />
        </mxCell>
        <mxCell id="eYOfIdHn1QBxmItVKCGx-32" value="" style="shape=partialRectangle;html=1;whiteSpace=wrap;collapsible=0;dropTarget=0;pointerEvents=0;fillColor=none;top=0;left=0;bottom=0;right=0;points=[[0,0.5],[1,0.5]];portConstraint=eastwest;" vertex="1" parent="eYOfIdHn1QBxmItVKCGx-27">
          <mxGeometry y="60" width="120" height="20" as="geometry" />
        </mxCell>
        <mxCell id="eYOfIdHn1QBxmItVKCGx-33" value="Table Item 3" style="shape=partialRectangle;html=1;whiteSpace=wrap;connectable=0;overflow=hidden;fillColor=none;top=0;left=0;bottom=0;right=0;" vertex="1" parent="eYOfIdHn1QBxmItVKCGx-32">
          <mxGeometry width="120" height="20" as="geometry" />
        </mxCell>
        <mxCell id="eYOfIdHn1QBxmItVKCGx-34" value="App 2" style="rounded=0;whiteSpace=wrap;html=1;" vertex="1" parent="1">
          <mxGeometry x="60" y="560" width="120" height="60" as="geometry" />
        </mxCell>
        <mxCell id="eYOfIdHn1QBxmItVKCGx-35" style="edgeStyle=orthogonalEdgeStyle;rounded=0;orthogonalLoop=1;jettySize=auto;html=1;exitX=0.5;exitY=1;exitDx=0;exitDy=0;entryX=0.5;entryY=0;entryDx=0;entryDy=0;entryPerimeter=0;" edge="1" parent="1" source="eYOfIdHn1QBxmItVKCGx-1" target="eYOfIdHn1QBxmItVKCGx-28">
          <mxGeometry relative="1" as="geometry">
            <mxPoint x="260" y="160" as="sourcePoint" />
            <mxPoint x="350" y="199" as="targetPoint" />
          </mxGeometry>
        </mxCell>
        <mxCell id="eYOfIdHn1QBxmItVKCGx-36" style="edgeStyle=orthogonalEdgeStyle;rounded=0;orthogonalLoop=1;jettySize=auto;html=1;entryX=0.5;entryY=0;entryDx=0;entryDy=0;exitX=0.54;exitY=1.19;exitDx=0;exitDy=0;exitPerimeter=0;" edge="1" parent="1" source="eYOfIdHn1QBxmItVKCGx-32" target="eYOfIdHn1QBxmItVKCGx-34">
          <mxGeometry relative="1" as="geometry">
            <mxPoint x="130" y="400" as="sourcePoint" />
            <mxPoint x="460" y="380" as="targetPoint" />
            <Array as="points">
              <mxPoint x="169" y="364" />
              <mxPoint x="169" y="480" />
              <mxPoint x="170" y="480" />
            </Array>
          </mxGeometry>
        </mxCell>
        <mxCell id="eYOfIdHn1QBxmItVKCGx-40" value="Container" style="swimlane;dashed=1;dashPattern=1 2;fillColor=none;" vertex="1" parent="1">
          <mxGeometry x="520" y="302" width="200" height="93" as="geometry">
            <mxRectangle x="520" y="302" width="200" height="23" as="alternateBounds" />
          </mxGeometry>
        </mxCell>
        <mxCell id="eYOfIdHn1QBxmItVKCGx-49" value="Container Item 2" style="whiteSpace=wrap;html=1;dashed=1;dashPattern=1 2;fillColor=none;" vertex="1" parent="eYOfIdHn1QBxmItVKCGx-40">
          <mxGeometry y="43" width="200" height="20" as="geometry" />
        </mxCell>
        <mxCell id="eYOfIdHn1QBxmItVKCGx-48" value="Container Item 1" style="whiteSpace=wrap;html=1;dashed=1;dashPattern=1 2;fillColor=none;" vertex="1" parent="eYOfIdHn1QBxmItVKCGx-40">
          <mxGeometry y="23" width="200" height="20" as="geometry" />
        </mxCell>
        <mxCell id="eYOfIdHn1QBxmItVKCGx-41" value="App 2" style="rounded=0;whiteSpace=wrap;html=1;" vertex="1" parent="1">
          <mxGeometry x="560" y="560" width="120" height="60" as="geometry" />
        </mxCell>
        <mxCell id="eYOfIdHn1QBxmItVKCGx-43" style="edgeStyle=orthogonalEdgeStyle;rounded=0;orthogonalLoop=1;jettySize=auto;html=1;exitX=0.5;exitY=1;exitDx=0;exitDy=0;entryX=0.5;entryY=0;entryDx=0;entryDy=0;" edge="1" parent="1" source="eYOfIdHn1QBxmItVKCGx-40" target="eYOfIdHn1QBxmItVKCGx-41">
          <mxGeometry relative="1" as="geometry">
            <mxPoint x="630" y="180" as="sourcePoint" />
            <mxPoint x="560" y="310" as="targetPoint" />
          </mxGeometry>
        </mxCell>
      </root>
    </mxGraphModel>
  </diagram>
</mxfile>
